<svg width="1509" height="2256" viewBox="0 0 1509 2256" fill="none" xmlns="http://www.w3.org/2000/svg">
<g style="mix-blend-mode:color-burn" opacity="0.08" clip-path="url(#clip0_47_76)">
<mask id="mask0_47_76" style="mask-type:luminance" maskUnits="userSpaceOnUse" x="-9" y="0" width="1754" height="2256">
<path d="M1745 0H-9V2256H1745V0Z" fill="white"/>
</mask>
<g mask="url(#mask0_47_76)">
<path d="M-166.32 683.767C-154.922 672.04 -142.058 667.253 -128.988 667.253C-108.718 667.253 -87.944 678.763 -71.3512 693.738C292.414 1022.03 777.048 1586.37 1145.12 1588.74C1570.23 1591.48 1721.76 1125.14 1902.32 875.576" stroke="#FCFDFC" stroke-miterlimit="10"/>
<path d="M-164.057 727.068C-152.751 715.4 -140.031 710.41 -127.111 710.031C-107.07 709.435 -86.5724 719.975 -70.0321 733.764C50.9833 834.657 185.578 961.372 325.288 1088.57C604.093 1343.1 899.197 1594.89 1143.82 1602.68C1334.75 1608.76 1471.18 1519.77 1580.52 1396.62C1712.3 1248.65 1801.25 1047.85 1899.76 911.135" stroke="#0A000A" stroke-miterlimit="10"/>
<path d="M-161.791 770.37C-150.572 758.756 -138 753.567 -125.231 752.805C-105.421 751.613 -85.1903 761.183 -68.7097 773.785C52.1374 866.187 186.666 984.008 326.817 1106.12C605.745 1350.46 898.681 1602.56 1142.53 1616.61C1331.28 1627.48 1467.49 1545.08 1577.63 1426.83C1710.73 1284.73 1798.74 1083.91 1897.2 946.694" stroke="#140014" stroke-miterlimit="10"/>
<path d="M-159.525 813.672C-148.394 802.116 -135.969 796.72 -123.35 795.578C-103.772 793.792 -83.8046 802.396 -67.3872 813.811C53.3231 897.73 187.753 1006.65 328.343 1123.67C607.391 1357.84 898.141 1610.2 1141.22 1630.55C1327.79 1646.17 1463.62 1570.09 1574.72 1457.04C1708.94 1320.45 1796.21 1119.98 1894.64 982.258" stroke="#1D001D" stroke-miterlimit="10"/>
<path d="M-157.262 856.973C-146.222 845.477 -133.941 839.877 -121.473 838.357C-102.123 835.974 -82.4154 843.609 -66.0681 853.837C54.5369 929.273 189.048 1028.85 329.869 1141.22C609.46 1364.33 897.583 1617.78 1139.93 1644.49C1324.28 1664.8 1459.89 1595.31 1571.82 1487.24C1707.31 1356.42 1793.69 1156.04 1892.08 1017.81" stroke="#270027" stroke-miterlimit="10"/>
<path d="M-154.996 900.279C-144.044 888.841 -131.906 883.039 -119.593 881.139C-100.475 878.166 -81.0227 884.83 -64.7456 893.868C55.7928 960.812 190.17 1051.4 331.395 1158.79C611.179 1371.52 897.011 1625.31 1138.63 1658.43C1320.77 1683.39 1456.17 1620.54 1568.92 1517.45C1705.7 1392.39 1791.17 1192.11 1889.52 1053.38" stroke="#310031" stroke-miterlimit="10"/>
<path d="M-152.73 943.581C-141.869 932.202 -129.875 926.196 -117.713 923.913C-98.8223 920.344 -79.623 926.034 -63.4231 933.889C57.0872 992.333 191.282 1073.94 332.925 1176.33C612.881 1378.71 896.422 1632.78 1137.33 1672.36C1317.25 1701.92 1452.45 1645.77 1566.02 1547.66C1704.09 1428.38 1788.65 1228.17 1886.96 1088.94" stroke="#3B003B" stroke-miterlimit="10"/>
<path d="M-150.464 986.883C-139.691 975.562 -127.844 969.354 -115.833 966.687C-97.1736 962.522 -78.2164 967.237 -62.0971 973.915C58.4202 1023.84 192.394 1096.5 334.458 1193.89C614.575 1385.92 895.829 1640.2 1136.04 1686.31C1313.73 1720.41 1448.75 1671.01 1563.12 1577.87C1702.49 1464.37 1786.13 1264.24 1884.4 1124.5" stroke="#450045" stroke-miterlimit="10"/>
<path d="M-148.201 1030.18C-137.519 1018.92 -125.813 1012.51 -113.956 1009.47C-95.5283 1004.71 -76.8096 1008.44 -60.7816 1013.94C59.7814 1055.31 193.489 1119.06 335.977 1211.44C616.241 1393.14 895.215 1647.55 1134.73 1700.24C1310.19 1738.84 1445.05 1696.25 1560.21 1608.07C1700.9 1500.36 1783.6 1300.3 1881.83 1160.06" stroke="#4E004E" stroke-miterlimit="10"/>
<path d="M-145.935 1073.49C-135.341 1062.28 -123.782 1055.67 -112.076 1052.24C-93.876 1046.89 -75.3959 1049.64 -59.4555 1053.97C61.1881 1086.74 194.587 1141.64 337.51 1229C617.911 1400.38 894.612 1654.84 1133.44 1714.18C1306.66 1757.22 1441.36 1721.5 1557.32 1638.28C1699.32 1536.37 1781.09 1336.36 1879.28 1195.62" stroke="#580058" stroke-miterlimit="10"/>
<path d="M-143.669 1116.79C-133.166 1105.64 -121.751 1098.83 -110.192 1095.02C-92.2238 1089.07 -73.9716 1090.83 -58.133 1094C62.6229 1118.13 195.674 1164.22 339.039 1246.55C619.56 1407.65 894.001 1662.06 1132.15 1728.12C1303.13 1775.56 1437.68 1746.77 1554.42 1668.49C1697.75 1572.39 1778.57 1372.44 1876.72 1231.18" stroke="#620062" stroke-miterlimit="10"/>
<path d="M-141.406 1160.09C-130.994 1149 -119.723 1141.98 -108.315 1137.8C-90.575 1131.25 -72.5544 1132.01 -56.8105 1134.02C64.0822 1149.46 196.758 1186.81 340.565 1264.1C621.198 1414.93 893.394 1669.21 1130.84 1742.06C1299.6 1793.83 1434 1772.04 1551.52 1698.7C1696.19 1608.42 1776.05 1408.5 1874.16 1266.74" stroke="#6C006C" stroke-miterlimit="10"/>
<path d="M-139.14 1203.4C-128.816 1192.36 -117.688 1185.14 -106.435 1180.57C-88.9263 1173.43 -71.1302 1173.18 -55.488 1174.04C65.5591 1180.73 197.835 1209.42 342.095 1281.66C622.826 1422.23 892.795 1676.29 1129.55 1755.99C1296.08 1812.06 1430.33 1797.32 1548.62 1728.9C1694.64 1644.45 1773.53 1444.56 1871.6 1302.3" stroke="#760076" stroke-miterlimit="10"/>
<path d="M-136.874 1246.7C-126.637 1235.72 -115.657 1228.3 -104.554 1223.35C-87.2775 1215.61 -69.6743 1215.34 -54.1655 1214.07C66.8114 1204.15 198.905 1232.03 343.624 1299.21C624.447 1429.56 892.209 1683.31 1128.25 1769.93C1292.56 1830.23 1426.66 1822.61 1545.72 1759.11C1693.09 1680.5 1771.01 1480.62 1869.04 1337.86" stroke="#7F007F" stroke-miterlimit="10"/>
<path d="M-134.611 1290C-124.466 1279.08 -113.63 1271.45 -102.678 1266.13C-85.6288 1257.8 -68.2817 1255.5 -52.8465 1254.09C68.5303 1243.05 199.968 1254.66 345.147 1316.76C626.05 1436.91 891.63 1690.25 1126.95 1783.87C1289.05 1848.36 1423 1847.92 1542.81 1789.31C1691.54 1716.58 1768.48 1516.69 1866.48 1373.42" stroke="#890089" stroke-miterlimit="10"/>
<path d="M-132.345 1333.31C-122.287 1322.44 -111.598 1314.61 -100.797 1308.9C-83.98 1299.98 -66.8574 1296.65 -51.524 1294.12C70.0072 1274.11 201.031 1277.31 346.676 1334.32C627.653 1444.3 891.076 1697.13 1125.66 1797.81C1285.56 1866.44 1419.34 1873.24 1539.92 1819.53C1690 1752.67 1765.97 1552.76 1863.92 1408.98" stroke="#930093" stroke-miterlimit="10"/>
<path d="M-130.079 1376.61C-120.112 1365.81 -109.564 1357.77 -98.9171 1351.68C-82.3277 1342.16 -65.4332 1337.79 -50.2015 1334.15C71.4665 1305.1 202.094 1299.97 348.202 1351.87C629.249 1451.71 890.542 1703.94 1124.35 1811.75C1282.08 1884.47 1415.68 1898.57 1537.01 1849.74C1688.46 1788.77 1763.44 1588.82 1861.36 1444.54" stroke="#9D009D" stroke-miterlimit="10"/>
<path d="M-127.816 1419.91C-117.937 1409.17 -107.536 1400.93 -97.0402 1394.46C-80.6824 1384.34 -64.0194 1378.91 -48.8824 1374.17C72.8978 1336.03 203.146 1322.64 349.728 1369.42C630.838 1459.15 890.034 1710.68 1123.06 1825.69C1278.62 1902.47 1412.03 1923.92 1534.11 1879.94C1686.93 1824.9 1760.92 1624.89 1858.8 1480.1" stroke="#A700A7" stroke-miterlimit="10"/>
<path d="M-125.55 1463.21C-115.762 1452.53 -105.505 1444.08 -95.16 1437.23C-79.0337 1426.52 -62.6058 1420.04 -47.56 1414.2C74.301 1366.9 204.206 1345.33 351.258 1386.98C632.431 1466.62 889.557 1717.35 1121.76 1839.63C1275.18 1920.42 1408.37 1949.28 1531.21 1910.15C1685.4 1861.03 1758.4 1660.95 1856.24 1515.67" stroke="#B100B1" stroke-miterlimit="10"/>
<path d="M-123.284 1506.51C-113.584 1495.89 -103.47 1487.24 -93.2762 1480.01C-77.3779 1468.7 -61.1885 1461.15 -46.2339 1454.22C75.6656 1397.72 205.265 1368.03 352.787 1404.53C634.024 1474.12 889.118 1723.95 1120.46 1853.56C1271.76 1938.32 1404.72 1974.65 1528.31 1940.35C1683.87 1897.19 1755.89 1697.01 1853.68 1551.22" stroke="#BA00BA" stroke-miterlimit="10"/>
<path d="M-121.021 1549.82C-111.413 1539.25 -101.443 1530.4 -91.3994 1522.79C-75.7327 1510.89 -59.7888 1502.27 -44.9149 1494.25C76.9881 1428.51 206.321 1390.76 354.313 1422.09C635.613 1481.65 888.708 1730.5 1119.17 1867.5C1268.36 1956.2 1401.07 2000.04 1525.41 1970.57C1682.33 1933.36 1753.36 1733.08 1851.12 1586.79" stroke="#C400C4" stroke-miterlimit="10"/>
<path d="M-118.755 1593.12C-109.234 1582.61 -99.4116 1573.56 -89.5191 1565.56C-74.0804 1553.07 -58.3891 1543.38 -43.5924 1534.27C78.265 1459.27 207.38 1413.49 355.843 1439.64C637.209 1489.2 888.346 1736.98 1117.87 1881.44C1264.99 1974.04 1397.41 2025.45 1522.51 2000.77C1680.8 1969.56 1750.84 1769.15 1848.56 1622.35" stroke="#CE00CE" stroke-miterlimit="10"/>
<path d="M-116.489 1636.42C-107.059 1625.97 -97.3805 1616.71 -87.6388 1608.34C-72.4316 1595.25 -56.9929 1584.49 -42.2698 1574.3C79.5034 1490.01 208.443 1436.25 357.369 1457.2C638.808 1496.79 888.024 1743.4 1116.57 1895.38C1261.64 1991.85 1393.75 2050.86 1519.61 2030.98C1679.25 2005.77 1748.32 1805.22 1846 1657.91" stroke="#D800D8" stroke-miterlimit="10"/>
<path d="M-114.226 1679.72C-104.884 1669.33 -95.3529 1659.87 -85.762 1651.12C-70.7864 1637.43 -55.6073 1625.6 -40.9508 1614.33C80.6961 1520.74 209.506 1459.01 358.895 1474.75C640.415 1504.4 887.743 1749.76 1115.27 1909.32C1258.32 2009.64 1390.09 2076.29 1516.71 2061.19C1677.71 2041.99 1745.8 1841.28 1843.44 1693.47" stroke="#E200E2" stroke-miterlimit="10"/>
<path d="M-111.96 1723.02C-102.709 1712.69 -93.3183 1703.03 -83.8817 1693.9C-69.1341 1679.61 -54.2216 1666.71 -39.6283 1654.35C81.8537 1551.47 210.562 1482.12 360.424 1492.3C642.008 1512.66 887.519 1756.07 1113.97 1923.25C1255.03 2027.39 1386.43 2102 1513.81 2091.39C1676.17 2078.59 1743.28 1877.34 1840.88 1729.03" stroke="#EB00EB" stroke-miterlimit="10"/>
<path d="M-109.694 1766.33C-100.531 1756.05 -91.2871 1746.18 -82.0015 1736.67C-67.4853 1721.8 -52.8395 1707.82 -38.3058 1694.38C82.9763 1582.2 211.65 1504.77 361.95 1509.86C643.653 1520.03 887.343 1762.34 1112.68 1937.19C1251.78 2045.13 1382.75 2127.32 1510.91 2121.6C1674.6 2114.67 1740.76 1913.4 1838.32 1764.59" stroke="#F500F5" stroke-miterlimit="10"/>
<path d="M-107.431 1809.63C34.4466 1649.79 183.172 1527.41 363.476 1527.41C817.751 1527.41 1168.33 2153.98 1508 2151.81C1673.03 2150.76 1738.24 1949.47 1835.76 1800.15" stroke="#FF00FF" stroke-miterlimit="10"/>
</g>
<mask id="mask1_47_76" style="mask-type:luminance" maskUnits="userSpaceOnUse" x="-9" y="0" width="1754" height="2256">
<path d="M1745 0H-9V2256H1745V0Z" fill="white"/>
</mask>
<g mask="url(#mask1_47_76)">
<path d="M-166.32 1227.96C-154.922 1239.69 -142.058 1244.47 -128.988 1244.47C-108.718 1244.47 -87.944 1232.96 -71.3512 1217.99C292.414 889.699 777.048 325.36 1145.12 322.987C1570.23 320.248 1721.76 786.581 1902.32 1036.15" stroke="#FCFDFC" stroke-miterlimit="10"/>
<path d="M-168.028 1196.78C-157.048 1208.76 -144.64 1214.06 -132.012 1214.74C-112.43 1215.83 -92.4027 1205.66 -76.1887 1192.45C105.785 1044.27 329.729 831.909 547.046 654.646C753.783 486.015 960.004 351.864 1138.92 345.335C1362.72 337.168 1512.09 457.463 1630.76 611.385C1736.52 747.796 1814.44 914.294 1899.76 1032.78" stroke="#050009" stroke-miterlimit="10"/>
<path d="M-169.737 1165.6C-159.17 1177.84 -147.219 1183.64 -135.039 1185.01C-116.145 1187.18 -96.8543 1178.34 -81.0297 1166.93C95.7279 1039.43 324.134 846.6 539.7 677.314C746.942 514.566 953.381 379.635 1132.71 367.687C1354.92 352.879 1504.87 463.436 1625.84 610.807C1733.69 742.197 1811.39 909.691 1897.2 1029.41" stroke="#090013" stroke-miterlimit="10"/>
<path d="M-171.441 1134.43C-161.293 1146.92 -149.794 1153.23 -138.059 1155.28C-119.853 1158.55 -101.285 1151 -85.8673 1141.4C85.8704 1034.4 318.591 861.345 532.358 699.987C740.151 543.141 946.741 407.461 1126.5 390.04C1347.09 368.662 1497.84 469.189 1620.93 610.234C1731.04 736.403 1808.34 905.094 1894.64 1026.05" stroke="#0E001C" stroke-miterlimit="10"/>
<path d="M-173.15 1103.25C-163.419 1115.99 -152.368 1122.78 -141.083 1125.55C-123.557 1129.85 -105.698 1123.65 -90.7048 1115.86C76.2725 1029.17 313.094 876.122 525.016 722.651C733.402 571.738 940.082 435.327 1120.3 412.388C1339.25 384.517 1490.84 474.929 1616.02 609.652C1728.4 730.597 1805.3 900.491 1892.08 1022.68" stroke="#120026" stroke-miterlimit="10"/>
<path d="M-174.858 1072.07C-165.541 1085.07 -154.943 1092.36 -144.107 1095.82C-127.265 1101.19 -110.087 1096.29 -95.5423 1090.33C67.0114 1023.8 307.65 890.962 517.674 745.319C726.698 600.367 933.41 463.252 1114.09 434.74C1331.39 400.449 1483.85 480.668 1611.11 609.075C1725.78 724.785 1802.24 895.889 1889.52 1019.31" stroke="#17002F" stroke-miterlimit="10"/>
<path d="M-176.563 1040.9C-167.663 1054.14 -157.518 1061.94 -147.127 1066.09C-130.966 1072.54 -114.44 1068.92 -100.38 1064.8C58.1572 1018.36 302.254 905.856 510.331 767.988C720.04 629.036 926.727 491.23 1107.88 457.088C1323.52 416.453 1476.89 486.385 1606.2 608.497C1723.18 718.965 1799.2 891.291 1886.96 1015.94" stroke="#1C0039" stroke-miterlimit="10"/>
<path d="M-178.271 1009.72C-169.789 1023.22 -160.093 1031.52 -150.151 1036.36C-134.674 1043.89 -118.762 1041.57 -105.217 1039.28C49.7766 1012.97 296.908 920.818 502.989 790.656C713.42 657.746 920.038 519.259 1101.68 479.441C1315.66 432.534 1469.96 492.092 1601.29 607.92C1720.61 713.135 1796.15 886.689 1884.4 1012.58" stroke="#200042" stroke-miterlimit="10"/>
<path d="M-179.98 978.544C-171.915 992.297 -162.668 1001.11 -153.175 1006.63C-138.379 1015.25 -122.88 1011.06 -110.055 1013.74C39.9857 1045.15 291.604 935.838 495.647 813.32C706.85 686.501 913.344 547.346 1095.48 501.789C1307.78 448.682 1463.03 497.782 1596.39 607.338C1718.04 707.288 1793.11 882.087 1881.84 1009.21" stroke="#25004B" stroke-miterlimit="10"/>
<path d="M-181.685 947.367C-174.034 961.376 -165.239 970.689 -156.196 976.898C-142.079 986.594 -126.792 983.58 -114.892 988.209C28.497 1043.98 286.349 950.931 488.305 835.983C700.318 715.314 906.648 575.488 1089.27 524.132C1299.9 464.903 1456.13 503.444 1591.48 606.756C1715.49 701.417 1790.06 877.48 1879.28 1005.84" stroke="#2A0055" stroke-miterlimit="10"/>
<path d="M-183.393 916.189C-176.16 930.451 -167.811 940.274 -159.223 947.168C-145.787 957.947 -131.513 959.77 -119.734 962.68C27.3675 999.016 281.133 966.1 480.959 858.656C693.828 744.2 899.954 603.697 1083.06 546.489C1292.02 481.209 1449.24 509.098 1586.56 606.183C1712.96 695.543 1787.01 872.887 1876.72 1002.47" stroke="#2E005E" stroke-miterlimit="10"/>
<path d="M-185.102 885.011C-178.286 899.526 -170.386 909.863 -162.247 917.438C-149.492 929.305 -135.726 932.639 -124.571 937.147C20.4111 995.776 275.958 981.342 473.617 881.32C687.377 773.145 893.265 631.951 1076.86 568.837C1284.15 497.57 1442.37 514.72 1581.65 605.605C1710.44 689.641 1783.96 868.285 1874.16 999.106" stroke="#330068" stroke-miterlimit="10"/>
<path d="M-186.806 853.837C-180.404 868.605 -172.96 879.452 -165.267 887.709C-153.196 900.667 -139.947 905.581 -129.409 911.618C13.339 993.434 270.823 996.674 466.274 903.988C680.968 802.175 886.589 660.268 1070.65 591.189C1276.3 514.007 1435.52 520.319 1576.74 605.028C1707.93 683.712 1780.91 863.687 1871.6 995.74" stroke="#370071" stroke-miterlimit="10"/>
<path d="M-188.515 822.659C-182.53 837.68 -175.535 849.041 -168.291 857.979C-156.901 872.03 -144.195 878.577 -134.246 886.089C5.91255 991.904 265.722 1012.1 458.932 926.656C674.593 831.291 879.92 688.644 1064.44 613.537C1268.46 530.498 1428.67 525.887 1571.83 604.446C1705.43 677.757 1777.86 859.08 1869.04 992.369" stroke="#3C007A" stroke-miterlimit="10"/>
<path d="M-190.223 791.482C-184.656 806.755 -178.11 818.63 -171.315 828.245C-160.609 843.392 -148.482 851.608 -139.084 860.556C-2.04013 991.007 260.653 1027.6 451.59 949.32C668.251 860.497 873.272 717.07 1058.24 635.885C1260.63 547.053 1421.83 531.428 1566.92 603.868C1702.95 671.778 1774.81 854.478 1866.48 989.003" stroke="#410084" stroke-miterlimit="10"/>
<path d="M-191.928 760.304C-186.775 775.829 -180.685 788.219 -174.336 798.516C-164.317 814.759 -152.803 824.667 -143.921 835.022C-10.6067 990.501 255.608 1043.2 444.248 971.984C661.937 889.807 866.639 745.549 1052.03 658.233C1252.82 563.666 1415 536.937 1562.02 603.286C1700.47 665.768 1771.77 849.876 1863.92 985.628" stroke="#45008D" stroke-miterlimit="10"/>
<path d="M-193.637 729.13C-188.901 744.909 -183.267 757.817 -177.359 768.791C-168.028 786.13 -157.164 797.726 -148.759 809.498C-19.766 990.163 250.585 1058.9 436.905 994.661C655.647 919.243 860.026 774.097 1045.83 680.59C1245.04 580.338 1408.18 542.428 1557.1 602.713C1697.99 659.74 1768.72 845.278 1861.36 982.267" stroke="#4A0097" stroke-miterlimit="10"/>
<path d="M-195.345 697.952C-191.027 713.988 -185.845 727.407 -180.383 739.057C-171.743 757.488 -161.556 770.767 -153.596 783.965C-29.4446 989.77 245.576 1074.7 429.563 1017.33C649.378 948.783 853.438 802.68 1039.62 702.938C1237.28 597.055 1401.35 547.883 1552.2 602.135C1695.51 653.681 1765.67 840.68 1858.8 978.901" stroke="#4E00A0" stroke-miterlimit="10"/>
<path d="M-197.05 666.774C-193.145 683.063 -188.424 697 -183.407 709.327C-175.458 728.859 -165.979 743.794 -158.437 758.436C-39.5441 989.211 240.573 1090.59 422.217 1039.99C643.12 978.459 846.871 831.313 1033.41 725.29C1229.54 613.817 1394.52 553.311 1547.28 601.558C1693.03 647.589 1762.62 836.078 1856.24 975.535" stroke="#5300AA" stroke-miterlimit="10"/>
<path d="M-198.758 635.596C-195.271 652.137 -191.005 666.589 -186.431 679.597C-179.173 700.222 -170.417 716.803 -163.275 732.902C-49.9488 988.408 235.578 1106.59 414.875 1062.66C636.872 1008.27 840.333 859.996 1027.21 747.634C1221.83 630.62 1387.7 558.703 1542.37 600.971C1690.55 641.467 1759.57 831.471 1853.67 972.16" stroke="#5800B3" stroke-miterlimit="10"/>
<path d="M-200.467 604.423C-197.397 621.217 -193.587 636.183 -189.455 649.868C-182.892 671.589 -174.869 689.785 -168.112 707.373C-60.5676 987.338 230.582 1122.68 407.533 1085.33C630.624 1038.22 833.825 888.72 1021 769.986C1214.15 647.467 1380.87 564.081 1537.47 600.398C1688.08 635.326 1756.53 826.874 1851.12 968.794" stroke="#5C00BC" stroke-miterlimit="10"/>
<path d="M-202.175 573.245C-199.519 590.291 -196.173 605.777 -192.479 620.138C-186.61 642.955 -179.331 662.75 -172.953 681.844C-71.3266 986.007 225.569 1138.89 400.187 1108C624.366 1068.34 827.346 917.493 1014.8 792.343C1206.5 664.351 1374.03 569.437 1532.55 599.825C1685.59 629.162 1753.48 822.276 1848.56 965.433" stroke="#6100C6" stroke-miterlimit="10"/>
<path d="M-203.88 542.067C-201.642 559.371 -198.755 575.361 -195.499 590.404C-190.328 614.313 -183.797 635.691 -177.787 656.311C-82.1558 984.419 220.546 1155.18 392.848 1130.66C618.097 1098.6 820.902 946.297 1008.59 814.691C1198.88 681.262 1367.18 574.757 1527.65 599.243C1683.1 622.967 1750.43 817.674 1846 962.062" stroke="#6600CF" stroke-miterlimit="10"/>
<path d="M-205.588 510.889C-203.768 528.445 -201.354 544.955 -198.523 560.675C-194.075 585.685 -188.269 608.619 -182.625 630.782C-93.0306 982.619 215.494 1171.59 385.506 1153.33C611.8 1129.03 814.489 975.138 1002.39 837.039C1191.29 698.196 1360.33 580.058 1522.74 598.666C1680.6 616.75 1747.38 813.071 1843.44 958.696" stroke="#6A00D9" stroke-miterlimit="10"/>
<path d="M-207.297 479.716C-205.893 497.525 -203.936 514.548 -201.547 530.95C-197.79 557.047 -192.742 581.538 -187.466 605.253C-103.916 980.625 210.408 1188.08 378.16 1176C605.468 1159.63 808.108 1004.01 996.179 859.392C1183.73 715.161 1353.46 585.346 1517.83 598.088C1678.09 610.514 1744.33 808.474 1840.88 955.326" stroke="#6F00E2" stroke-miterlimit="10"/>
<path d="M-209.002 448.538C-208.012 466.599 -206.511 484.133 -204.567 501.215C-201.498 528.4 -197.215 554.439 -192.3 579.72C-114.791 978.459 205.286 1204.66 370.822 1198.66C599.094 1190.39 801.769 1032.92 989.977 881.735C1176.21 732.14 1346.6 590.314 1512.92 597.506C1675.57 603.972 1741.29 803.867 1838.32 951.955" stroke="#7300EC" stroke-miterlimit="10"/>
<path d="M-210.71 417.36C-194.924 922.704 183.175 1221.33 363.479 1221.33C817.755 1221.33 1168.34 594.758 1508.01 596.929C1673.03 597.984 1738.24 799.269 1835.76 948.589" stroke="#7800F5" stroke-miterlimit="10"/>
</g>
</g>
<defs>
<clipPath id="clip0_47_76">
<rect width="1509" height="2256" fill="white"/>
</clipPath>
</defs>
</svg>
