<svg width="706" height="689" viewBox="0 0 706 689" fill="none" xmlns="http://www.w3.org/2000/svg">
<g filter="url(#filter0_dddd_695_719)">
<path d="M611.991 37.7016C608.697 27.1582 600.046 18 589 18H59C47.9543 18 39 26.9543 39 38V565C39 576.046 47.9543 585 59 585H647C658.046 585 667 576.046 667 565V372.249C667 362.131 659.251 353.909 649.895 350.058C625.896 340.179 609 316.563 609 289C609 261.437 625.896 237.821 649.895 227.942C659.251 224.091 667 215.869 667 205.751V101.249C667 91.1312 659.251 82.9088 649.895 79.0577C631.871 71.6387 617.853 56.4706 611.991 37.7016Z" fill="#FCFDFC"/>
</g>
<defs>
<filter id="filter0_dddd_695_719" x="0" y="0" width="706" height="689" filterUnits="userSpaceOnUse" color-interpolation-filters="sRGB">
<feFlood flood-opacity="0" result="BackgroundImageFix"/>
<feColorMatrix in="SourceAlpha" type="matrix" values="0 0 0 0 0 0 0 0 0 0 0 0 0 0 0 0 0 0 127 0" result="hardAlpha"/>
<feOffset dy="7"/>
<feGaussianBlur stdDeviation="8"/>
<feColorMatrix type="matrix" values="0 0 0 0 0.0823529 0 0 0 0 0.0823529 0 0 0 0 0.113725 0 0 0 0.03 0"/>
<feBlend mode="normal" in2="BackgroundImageFix" result="effect1_dropShadow_695_719"/>
<feColorMatrix in="SourceAlpha" type="matrix" values="0 0 0 0 0 0 0 0 0 0 0 0 0 0 0 0 0 0 127 0" result="hardAlpha"/>
<feOffset dy="29"/>
<feGaussianBlur stdDeviation="14.5"/>
<feColorMatrix type="matrix" values="0 0 0 0 0.0823529 0 0 0 0 0.0823529 0 0 0 0 0.113725 0 0 0 0.03 0"/>
<feBlend mode="normal" in2="effect1_dropShadow_695_719" result="effect2_dropShadow_695_719"/>
<feColorMatrix in="SourceAlpha" type="matrix" values="0 0 0 0 0 0 0 0 0 0 0 0 0 0 0 0 0 0 127 0" result="hardAlpha"/>
<feOffset dy="65"/>
<feGaussianBlur stdDeviation="19.5"/>
<feColorMatrix type="matrix" values="0 0 0 0 0.0823529 0 0 0 0 0.0823529 0 0 0 0 0.113725 0 0 0 0.02 0"/>
<feBlend mode="normal" in2="effect2_dropShadow_695_719" result="effect3_dropShadow_695_719"/>
<feColorMatrix in="SourceAlpha" type="matrix" values="0 0 0 0 0 0 0 0 0 0 0 0 0 0 0 0 0 0 127 0" result="hardAlpha"/>
<feMorphology radius="2" operator="dilate" in="SourceAlpha" result="effect4_dropShadow_695_719"/>
<feOffset dy="4"/>
<feGaussianBlur stdDeviation="10"/>
<feComposite in2="hardAlpha" operator="out"/>
<feColorMatrix type="matrix" values="0 0 0 0 0.0823529 0 0 0 0 0.0823529 0 0 0 0 0.113725 0 0 0 0.1 0"/>
<feBlend mode="normal" in2="effect3_dropShadow_695_719" result="effect4_dropShadow_695_719"/>
<feBlend mode="normal" in="SourceGraphic" in2="effect4_dropShadow_695_719" result="shape"/>
</filter>
</defs>
</svg>
