<svg width="580" height="263" viewBox="0 0 580 263" fill="none" xmlns="http://www.w3.org/2000/svg">
<path fill-rule="evenodd" clip-rule="evenodd" d="M580 72.9337C580 64.6321 574.754 57.3764 567.54 53.2694C551.685 44.2441 538.841 30.5406 530.884 14.0374C527.014 6.0114 519.383 0 510.473 0H20C8.95431 0 0 8.95431 0 20V243C0 254.046 8.95431 263 20 263H507.334C515.716 263 522 255.382 522 247C522 213.465 540.341 184.214 567.54 168.731C574.754 164.624 580 157.368 580 149.066V72.9337Z" fill="url(#paint0_linear_195_496)"/>
<defs>
<linearGradient id="paint0_linear_195_496" x1="580" y1="131.5" x2="0" y2="131.5" gradientUnits="userSpaceOnUse">
<stop stop-color="#ABABE7"/>
<stop offset="1" stop-color="#EDEDFA"/>
</linearGradient>
</defs>
</svg>
