<svg width="414" height="825" viewBox="0 0 414 825" fill="none" xmlns="http://www.w3.org/2000/svg">
<g filter="url(#filter0_dddd_643_738)">
<path fill-rule="evenodd" clip-rule="evenodd" d="M289.628 18C301.009 18 309 29.6197 309 41C309 70.5892 328.471 95.6305 355.3 104.01C365.843 107.303 375 115.954 375 127V218C375 229.046 365.843 237.697 355.3 240.99C328.471 249.369 309 274.411 309 304C309 333.589 328.471 358.63 355.3 367.01C365.843 370.303 375 378.954 375 390V701C375 712.046 366.046 721 355 721H59C47.9543 721 39 712.046 39 701V38C39 26.9543 47.9543 18 59 18H289.628Z" fill="#FCFDFC"/>
</g>
<defs>
<filter id="filter0_dddd_643_738" x="0" y="0" width="414" height="825" filterUnits="userSpaceOnUse" color-interpolation-filters="sRGB">
<feFlood flood-opacity="0" result="BackgroundImageFix"/>
<feColorMatrix in="SourceAlpha" type="matrix" values="0 0 0 0 0 0 0 0 0 0 0 0 0 0 0 0 0 0 127 0" result="hardAlpha"/>
<feOffset dy="7"/>
<feGaussianBlur stdDeviation="8"/>
<feColorMatrix type="matrix" values="0 0 0 0 0.0823529 0 0 0 0 0.0823529 0 0 0 0 0.113725 0 0 0 0.03 0"/>
<feBlend mode="normal" in2="BackgroundImageFix" result="effect1_dropShadow_643_738"/>
<feColorMatrix in="SourceAlpha" type="matrix" values="0 0 0 0 0 0 0 0 0 0 0 0 0 0 0 0 0 0 127 0" result="hardAlpha"/>
<feOffset dy="29"/>
<feGaussianBlur stdDeviation="14.5"/>
<feColorMatrix type="matrix" values="0 0 0 0 0.0823529 0 0 0 0 0.0823529 0 0 0 0 0.113725 0 0 0 0.03 0"/>
<feBlend mode="normal" in2="effect1_dropShadow_643_738" result="effect2_dropShadow_643_738"/>
<feColorMatrix in="SourceAlpha" type="matrix" values="0 0 0 0 0 0 0 0 0 0 0 0 0 0 0 0 0 0 127 0" result="hardAlpha"/>
<feOffset dy="65"/>
<feGaussianBlur stdDeviation="19.5"/>
<feColorMatrix type="matrix" values="0 0 0 0 0.0823529 0 0 0 0 0.0823529 0 0 0 0 0.113725 0 0 0 0.02 0"/>
<feBlend mode="normal" in2="effect2_dropShadow_643_738" result="effect3_dropShadow_643_738"/>
<feColorMatrix in="SourceAlpha" type="matrix" values="0 0 0 0 0 0 0 0 0 0 0 0 0 0 0 0 0 0 127 0" result="hardAlpha"/>
<feMorphology radius="2" operator="dilate" in="SourceAlpha" result="effect4_dropShadow_643_738"/>
<feOffset dy="4"/>
<feGaussianBlur stdDeviation="10"/>
<feComposite in2="hardAlpha" operator="out"/>
<feColorMatrix type="matrix" values="0 0 0 0 0.0823529 0 0 0 0 0.0823529 0 0 0 0 0.113725 0 0 0 0.1 0"/>
<feBlend mode="normal" in2="effect3_dropShadow_643_738" result="effect4_dropShadow_643_738"/>
<feBlend mode="normal" in="SourceGraphic" in2="effect4_dropShadow_643_738" result="shape"/>
</filter>
</defs>
</svg>
